<svg xmlns="http://www.w3.org/2000/svg" width="466" height="350" viewBox="0 0 466 350">
<style>
text { font-family: Arial, Helvetica, sans-serif; fill: #172033; }
.small { font-size: 11px; }
.label { font-size: 12px; }
.title { font-size: 18px; font-weight: 700; }
.axis { stroke: #9aa4b2; stroke-width: 1; }
.grid { stroke: #e2e8f0; stroke-width: 1; }
</style>
<rect x="0" y="0" width="466" height="350" fill="#ffffff"/>
<text x="30" y="32" class="title">SpliceAI score bins by grouped class</text>
<text x="150" y="52" class="small">Grouped class</text>
<text x="154" y="60" class="small">benign</text>
<text x="246" y="60" class="small">vus</text>
<text x="338" y="60" class="small">pathogenic</text>
<text x="20" y="90" class="small">0</text>
<rect x="150" y="70" width="90" height="28" fill="#2563eb"/>
<text x="156" y="89" class="small">28993</text>
<rect x="242" y="70" width="90" height="28" fill="#b3c9f6"/>
<text x="248" y="89" class="small">3075</text>
<rect x="334" y="70" width="90" height="28" fill="#c8d8f8"/>
<text x="340" y="89" class="small">1479</text>
<text x="20" y="120" class="small">0-0.099</text>
<rect x="150" y="100" width="90" height="28" fill="#8cadf3"/>
<text x="156" y="119" class="small">7517</text>
<rect x="242" y="100" width="90" height="28" fill="#b1c8f6"/>
<text x="248" y="119" class="small">3196</text>
<rect x="334" y="100" width="90" height="28" fill="#d8e4fa"/>
<text x="340" y="119" class="small">621</text>
<text x="20" y="150" class="small">0.10-0.199</text>
<rect x="150" y="130" width="90" height="28" fill="#e1eafa"/>
<text x="156" y="149" class="small">314</text>
<rect x="242" y="130" width="90" height="28" fill="#d0def9"/>
<text x="248" y="149" class="small">1017</text>
<rect x="334" y="130" width="90" height="28" fill="#e9f0fb"/>
<text x="340" y="149" class="small">130</text>
<text x="20" y="180" class="small">0.20-0.499</text>
<rect x="150" y="160" width="90" height="28" fill="#eaf1fb"/>
<text x="156" y="179" class="small">104</text>
<rect x="242" y="160" width="90" height="28" fill="#d8e4fa"/>
<text x="248" y="179" class="small">616</text>
<rect x="334" y="160" width="90" height="28" fill="#e9f0fb"/>
<text x="340" y="179" class="small">137</text>
<text x="20" y="210" class="small">0.50-0.799</text>
<rect x="150" y="190" width="90" height="28" fill="#f2f7fc"/>
<text x="156" y="209" class="small">14</text>
<rect x="242" y="190" width="90" height="28" fill="#e8effb"/>
<text x="248" y="209" class="small">149</text>
<rect x="334" y="190" width="90" height="28" fill="#eef4fb"/>
<text x="340" y="209" class="small">52</text>
<text x="20" y="240" class="small">0.80-1.00</text>
<rect x="150" y="220" width="90" height="28" fill="#f3f7fc"/>
<text x="156" y="239" class="small">10</text>
<rect x="242" y="220" width="90" height="28" fill="#ebf1fb"/>
<text x="248" y="239" class="small">101</text>
<rect x="334" y="220" width="90" height="28" fill="#f1f6fc"/>
<text x="340" y="239" class="small">22</text>
<text x="20" y="270" class="small">missing</text>
<rect x="150" y="250" width="90" height="28" fill="#f7fafc"/>
<rect x="242" y="250" width="90" height="28" fill="#f7fafc"/>
<rect x="334" y="250" width="90" height="28" fill="#f7fafc"/>
</svg>
